<svg width="471" height="581" viewBox="0 0 471 581" fill="none" xmlns="http://www.w3.org/2000/svg">
<path d="M279.074 266.328L235.617 266.189C250.874 279.584 258.471 295.966 258.41 315.334C258.377 325.588 256.148 335.428 251.724 344.854C247.462 354.281 241.088 362.643 232.601 369.94C224.277 377.238 213.922 383.227 201.537 387.908C189.316 392.426 175.31 395.148 159.519 396.075C139.172 396.824 128.982 402.244 128.95 412.335C128.937 416.241 130.23 419.093 132.829 420.892C135.427 422.691 139.492 424.087 145.022 425.081C150.716 425.913 160.235 426.92 173.577 428.102C188.71 429.452 202.781 431.776 215.792 435.072C228.802 438.369 240.906 445.243 252.103 455.696C263.3 466.148 268.868 481.059 268.806 500.427C268.757 515.889 264.482 529.548 255.981 541.402C247.642 553.257 234.103 562.491 215.365 569.105C196.626 575.718 171.876 578.976 141.114 578.878C96.8439 578.737 64.3109 572.693 43.5155 560.745C22.8829 548.798 12.5982 532.896 12.6614 513.039C12.6785 507.668 14.0003 501.487 16.6268 494.497C19.416 487.507 25.1341 480.771 33.781 474.288C42.5908 467.805 55.3 463.451 71.9088 461.225C66.0562 459.091 61.0236 455.006 56.811 448.97C52.599 442.772 50.5036 436.336 50.5248 429.663C50.5523 421.037 53.5092 412.501 59.3955 404.056C65.4446 395.612 75.1461 390.191 88.5002 387.792C69.9611 382.85 53.9586 373.603 40.4926 360.051C27.0266 346.499 20.3278 328.98 20.3962 307.496C20.448 291.22 23.5858 276.989 29.8096 264.801C36.1961 252.615 44.9353 242.714 56.0274 235.1C67.1194 227.485 79.9953 221.911 94.655 218.377C109.315 214.68 125.353 212.859 142.768 212.915L279.242 213.349L279.074 266.328ZM181.772 308.01C181.812 295.478 177.531 285.454 168.929 277.94C160.489 270.263 150.98 266.408 140.401 266.374C126.892 266.331 116.217 270.855 108.375 279.944C100.696 289.034 96.8409 298.625 96.8087 308.716C96.7864 315.715 98.3933 322.23 101.629 328.263C105.028 334.296 109.733 339.194 115.743 342.956C121.916 346.557 129.235 348.37 137.698 348.397C150.393 348.438 160.904 344.484 169.23 336.535C177.556 328.586 181.737 319.078 181.772 308.01ZM198.714 508.016C198.748 497.111 192.911 490.013 181.203 486.72C169.657 483.591 157.699 482.007 145.329 481.967C124.984 481.902 110.248 483.971 101.12 488.174C92.1542 492.54 87.6563 499.443 87.6262 508.883C87.5671 527.438 106.255 536.775 143.69 536.894C160.454 536.947 173.808 534.548 183.752 529.697C193.695 525.009 198.682 517.782 198.714 508.016Z" fill="#CF142B"/>
</svg>
