<?xml version="1.0" encoding="utf-8"?>
<!-- Generator: Adobe Illustrator 24.1.0, SVG Export Plug-In . SVG Version: 6.00 Build 0)  -->
<svg version="1.1" id="Layer_1" xmlns="http://www.w3.org/2000/svg" xmlns:xlink="http://www.w3.org/1999/xlink" x="0px" y="0px"
	 viewBox="0 0 182 133" style="enable-background:new 0 0 182 133;" xml:space="preserve">
<style type="text/css">
	.st0{fill:#FFFFFF;}
</style>
<path class="st0" d="M35.94,131H0.78V2.42h35.16V131z M181.6,51.59c0,9.71-2.1,19.42-6.31,29.13c-4.21,9.71-10.21,19.02-18,27.93
	c-7.73,8.91-16.73,16.98-27,24.21l-31.73-10.39c14.72-12.55,25.61-24.15,32.66-34.79c-2.29,0.62-5.13,0.93-8.53,0.93
	c-7.55,0-14.47-1.73-20.78-5.2c-6.31-3.46-11.35-8.38-15.12-14.75c-3.77-6.43-5.66-13.7-5.66-21.8c0-5.94,1.14-11.66,3.43-17.16
	c2.29-5.5,5.66-10.48,10.11-14.94s9.74-7.92,15.86-10.39s12.83-3.71,20.13-3.71c8.16,0,15.49,1.39,21.99,4.17
	c6.49,2.78,11.84,6.59,16.05,11.41c4.27,4.82,7.48,10.27,9.65,16.33C180.51,38.57,181.6,44.91,181.6,51.59z M148.1,47.41
	c0-5.07-1.55-9.31-4.64-12.71c-3.09-3.46-7.05-5.2-11.88-5.2c-3.96,0-7.24,0.99-9.83,2.97c-2.54,1.92-4.39,4.27-5.57,7.05
	c-1.11,2.72-1.67,5.35-1.67,7.89c0,5.88,1.64,10.24,4.92,13.08c3.34,2.78,7.21,4.17,11.6,4.17c4.14,0,7.48-0.96,10.02-2.88
	c2.54-1.92,4.33-4.17,5.38-6.77C147.55,52.42,148.1,49.89,148.1,47.41z"/>
</svg>
