<?xml version="1.0" encoding="utf-8"?>
<!-- Generator: Adobe Illustrator 24.1.0, SVG Export Plug-In . SVG Version: 6.00 Build 0)  -->
<svg version="1.1" id="Layer_1" xmlns="http://www.w3.org/2000/svg" xmlns:xlink="http://www.w3.org/1999/xlink" x="0px" y="0px"
	 viewBox="0 0 597 501" style="enable-background:new 0 0 597 501;" xml:space="preserve">
<style type="text/css">
	.st0{fill:#CF142B;}
</style>
<path class="st0" d="M594.7,122.38l-95.59-1.67c33.14,29.94,49.34,66.22,48.59,108.82c-0.39,22.56-5.61,44.13-15.64,64.73
	c-9.67,20.6-23.96,38.8-42.85,54.58c-18.54,15.79-41.51,28.64-68.9,38.55c-27.03,9.55-57.92,15.1-92.69,16.65
	c-44.78,1.01-67.37,12.61-67.76,34.81c-0.15,8.59,2.61,14.91,8.26,18.95c5.66,4.04,14.56,7.24,26.69,9.6
	c12.5,2.01,33.41,4.52,62.72,7.54c33.25,3.45,64.13,9,92.64,16.66c28.52,7.66,54.93,23.16,79.23,46.51
	c24.3,23.34,36.08,56.32,35.34,98.92c-0.59,34.01-10.43,63.92-29.5,89.73c-18.71,25.82-48.79,45.7-90.22,59.66
	c-41.43,13.96-95.98,20.35-163.64,19.17c-97.38-1.7-168.76-16.02-214.13-42.96C22.26,735.69,0.13,700.39,0.9,656.71
	c0.21-11.82,3.31-25.37,9.31-40.66c6.36-15.29,19.15-29.93,38.37-43.92c19.58-13.98,47.68-23.16,84.28-27.54
	c-12.81-4.88-23.75-14.02-32.83-27.43c-9.07-13.77-13.48-27.99-13.22-42.67c0.33-18.98,7.1-37.66,20.32-56.05
	c13.57-18.39,35.08-30.01,64.53-34.86c-40.63-11.45-75.54-32.3-104.73-62.53c-29.2-30.23-43.38-68.98-42.56-116.24
	C25,169,32.35,137.8,46.42,111.18c14.43-26.61,33.97-48.11,58.61-64.51c24.64-16.4,53.14-28.26,85.5-35.57
	c32.37-7.67,67.7-11.17,106.01-10.5l300.2,5.25L594.7,122.38z M379.35,211.01c0.48-27.57-8.62-49.75-27.31-66.55
	c-18.32-17.15-39.12-25.93-62.39-26.34c-29.72-0.52-53.34,9.1-70.88,28.84c-17.18,19.76-25.96,40.73-26.35,62.93
	c-0.27,15.39,3.06,29.78,9.99,43.15c7.29,13.38,17.48,24.3,30.58,32.77c13.47,8.11,29.51,12.33,48.13,12.66
	c27.92,0.49,51.17-7.88,69.74-25.1C369.43,256.14,378.92,235.35,379.35,211.01z M410.33,651.51c0.42-23.99-12.2-39.79-37.85-47.4
	c-25.3-7.25-51.55-11.11-78.77-11.58c-44.75-0.78-77.23,3.31-97.45,12.26c-19.86,9.32-29.97,24.37-30.33,45.13
	c-0.71,40.81,40.1,61.94,122.45,63.38c36.88,0.65,66.33-4.21,88.35-14.57C398.76,688.73,409.95,672.99,410.33,651.51z"/>
</svg>
