<?xml version="1.0" encoding="utf-8"?>
<!-- Generator: Adobe Illustrator 24.1.0, SVG Export Plug-In . SVG Version: 6.00 Build 0)  -->
<svg version="1.1" id="Layer_1" xmlns="http://www.w3.org/2000/svg" xmlns:xlink="http://www.w3.org/1999/xlink" x="0px" y="0px"
	 viewBox="0 0 268 367" style="enable-background:new 0 0 268 367;" xml:space="preserve">
<style type="text/css">
	.st0{fill:#E5E5E5;}
	.st1{fill:#CF142B;}
</style>
<rect class="st0" width="268" height="367"/>
<path class="st1" d="M267.07,54.33l-43.46-0.14c15.26,13.39,22.85,29.78,22.79,49.14c-0.03,10.25-2.26,20.09-6.68,29.52
	c-4.26,9.43-10.64,17.79-19.12,25.09c-8.32,7.3-18.68,13.29-31.06,17.97c-12.22,4.52-26.23,7.24-42.02,8.17
	c-20.35,0.75-30.54,6.17-30.57,16.26c-0.01,3.91,1.28,6.76,3.88,8.56c2.6,1.8,6.66,3.2,12.19,4.19c5.69,0.83,15.21,1.84,28.55,3.02
	c15.13,1.35,29.2,3.67,42.22,6.97c13.01,3.3,25.11,10.17,36.31,20.62c11.2,10.45,16.77,25.36,16.7,44.73
	c-0.05,15.46-4.32,29.12-12.83,40.98c-8.34,11.85-21.88,21.09-40.61,27.7c-18.74,6.61-43.49,9.87-74.25,9.77
	c-44.27-0.14-76.8-6.18-97.6-18.13C10.88,336.8,0.6,320.9,0.66,301.04c0.02-5.37,1.34-11.55,3.97-18.54
	c2.79-6.99,8.51-13.73,17.15-20.21c8.81-6.48,21.52-10.84,38.13-13.06c-5.85-2.13-10.89-6.22-15.1-12.26
	c-4.21-6.2-6.31-12.63-6.29-19.31c0.03-8.63,2.98-17.16,8.87-25.61c6.05-8.44,15.75-13.87,29.1-16.26
	c-18.54-4.94-34.54-14.19-48.01-27.74C15.03,134.5,8.33,116.98,8.4,95.5c0.05-16.28,3.19-30.51,9.41-42.69
	c6.39-12.19,15.13-22.09,26.22-29.7C55.12,15.49,68,9.91,82.65,6.38c14.66-3.7,30.7-5.52,48.11-5.46l136.47,0.43L267.07,54.33z
	 M169.77,96.01c0.04-12.53-4.24-22.56-12.84-30.07c-8.44-7.68-17.95-11.53-28.53-11.57c-13.51-0.04-24.18,4.48-32.03,13.57
	c-7.68,9.09-11.53,18.68-11.57,28.77c-0.02,7,1.58,13.51,4.82,19.55c3.4,6.03,8.1,10.93,14.11,14.69c6.17,3.6,13.49,5.41,21.96,5.44
	c12.7,0.04,23.21-3.91,31.53-11.86C165.56,116.59,169.74,107.08,169.77,96.01z M186.71,296.02c0.04-10.9-5.8-18-17.51-21.3
	c-11.55-3.13-23.5-4.71-35.87-4.75c-20.34-0.07-35.08,2-44.21,6.21c-8.97,4.37-13.46,11.27-13.49,20.71
	c-0.06,18.55,18.63,27.89,56.06,28.01c16.76,0.05,30.12-2.35,40.06-7.2C181.7,313.01,186.68,305.78,186.71,296.02z"/>
</svg>
