<?xml version="1.0" encoding="utf-8"?>
<!-- Generator: Adobe Illustrator 24.1.0, SVG Export Plug-In . SVG Version: 6.00 Build 0)  -->
<svg version="1.1" id="Layer_1" xmlns="http://www.w3.org/2000/svg" xmlns:xlink="http://www.w3.org/1999/xlink" x="0px" y="0px"
	 viewBox="0 0 575 201" style="enable-background:new 0 0 575 201;" xml:space="preserve">
<style type="text/css">
	.st0{fill:#860101;}
	.st1{fill:#00247D;}
</style>
<path class="st0" d="M258.09,92.13l22.45-37.11c14.16-23.28,28.07-39.88,41.74-49.81c13.83-9.77,29.7-14.65,47.6-14.66
	c26.86-0.01,48.67,9.27,65.43,27.82c16.77,18.71,25.15,42.96,25.16,72.75c0.01,28.48-7.96,54.61-23.91,78.37l-55.42,0.01
	c23.59-24.58,35.39-51.03,35.38-79.35c0-15.95-3.75-29.05-11.24-39.3c-7.33-10.25-16.77-15.38-28.32-15.38
	c-10.25,0-19.86,3.75-28.81,11.24c-8.95,7.49-18.31,19.62-28.07,36.38l-21.97,37.36c-24.73,41.67-56.3,62.51-94.71,62.52
	c-27.34,0.01-49.56-9.19-66.66-27.57c-17.09-18.23-25.64-41.99-25.65-71.28c-0.01-33.69,10.32-64.37,30.99-92.05l62.01-0.01
	c-33.36,26.37-50.04,56.89-50.03,91.56c0,15.3,4.24,27.99,12.7,38.08c8.63,10.25,19.37,15.38,32.23,15.38
	C219.85,137.06,239.54,122.08,258.09,92.13z"/>
<path class="st1" d="M258.09,66.13l22.45-37.11c14.16-23.28,28.07-39.88,41.74-49.81c13.83-9.77,29.7-14.65,47.6-14.66
	c26.86-0.01,48.67,9.27,65.43,27.82c16.77,18.71,25.15,42.96,25.16,72.75c0.01,28.48-7.96,54.61-23.91,78.37l-55.42,0.01
	c23.59-24.58,35.39-51.03,35.38-79.35c0-15.95-3.75-29.05-11.24-39.3c-7.33-10.25-16.77-15.38-28.32-15.38
	c-10.25,0-19.86,3.75-28.81,11.24c-8.95,7.49-18.31,19.62-28.07,36.38l-21.97,37.36c-24.73,41.67-56.3,62.51-94.71,62.52
	c-27.34,0.01-49.56-9.19-66.66-27.57c-17.09-18.23-25.64-41.99-25.65-71.28c-0.01-33.69,10.32-64.37,30.99-92.05l62.01-0.01
	c-33.36,26.37-50.04,56.89-50.03,91.56c0,15.3,4.24,27.99,12.7,38.08c8.63,10.25,19.37,15.38,32.23,15.37
	C219.85,111.06,239.54,96.08,258.09,66.13z"/>
</svg>
