<svg width="528" height="726" viewBox="0 0 528 726" fill="none" xmlns="http://www.w3.org/2000/svg">
<path d="M527.56 106.549L441.516 106.275C471.724 132.797 486.768 165.233 486.646 203.582C486.581 223.885 482.168 243.368 473.408 262.031C464.969 280.696 452.348 297.253 435.544 311.701C419.062 326.151 398.561 338.009 374.039 347.277C349.84 356.223 322.108 361.614 290.842 363.448C250.554 364.931 230.378 375.662 230.315 395.643C230.29 403.377 232.85 409.025 237.995 412.586C243.14 416.147 251.188 418.912 262.139 420.881C273.413 422.528 292.259 424.522 318.678 426.862C348.64 429.535 376.502 434.136 402.262 440.663C428.023 447.191 451.988 460.802 474.159 481.498C496.329 502.194 507.354 531.716 507.231 570.066C507.134 600.681 498.669 627.724 481.836 651.196C465.326 674.669 438.519 692.953 401.417 706.048C364.314 719.142 315.309 725.593 254.401 725.399C166.746 725.12 102.33 713.152 61.1553 689.495C20.3027 665.839 -0.0609379 634.353 0.0642859 595.037C0.0981579 584.403 2.71527 572.165 7.91563 558.324C13.4383 544.484 24.7601 531.146 41.8811 518.31C59.3245 505.475 84.4888 496.853 117.374 492.446C105.786 488.22 95.8214 480.132 87.4805 468.181C79.1406 455.909 74.9917 443.166 75.0338 429.953C75.0882 412.873 80.9429 395.973 92.5977 379.252C104.575 362.532 123.784 351.797 150.225 347.047C113.518 337.263 81.8327 318.953 55.17 292.12C28.5073 265.287 15.2437 230.601 15.3791 188.062C15.4818 155.836 21.6946 127.657 34.0176 103.527C46.6629 79.3969 63.9666 59.7937 85.9288 44.7171C107.891 29.6405 133.385 18.6035 162.412 11.606C191.439 4.28635 223.194 0.681415 257.676 0.791242L527.894 1.6519L527.56 106.549ZM334.904 189.08C334.983 164.266 326.506 144.419 309.473 129.541C292.764 114.341 273.935 106.708 252.988 106.641C226.24 106.556 205.103 115.512 189.577 133.51C174.373 151.508 166.74 170.498 166.676 190.478C166.632 204.335 169.813 217.236 176.221 229.18C182.95 241.126 192.265 250.823 204.165 258.273C216.389 265.402 230.879 268.993 247.637 269.047C272.774 269.127 293.585 261.298 310.071 245.559C326.556 229.82 334.834 210.994 334.904 189.08ZM368.447 585.092C368.516 563.501 356.959 549.445 333.777 542.926C310.916 536.73 287.239 533.593 262.747 533.515C222.464 533.387 193.286 537.483 175.212 545.805C157.46 554.449 148.554 568.117 148.495 586.809C148.378 623.547 185.379 642.034 259.5 642.27C292.693 642.376 319.134 637.626 338.823 628.021C358.511 618.738 368.386 604.428 368.447 585.092Z" fill="#CF142B"/>
</svg>
